<?xml version="1.0" standalone="no"?>
<!DOCTYPE svg PUBLIC "-//W3C//DTD SVG 20010904//EN"
 "http://www.w3.org/TR/2001/REC-SVG-20010904/DTD/svg10.dtd">
<svg version="1.0" xmlns="http://www.w3.org/2000/svg"
 width="1024.000000pt" height="1024.000000pt" viewBox="0 0 1024.000000 1024.000000"
 preserveAspectRatio="xMidYMid meet">

<g transform="translate(0.000000,1024.000000) scale(0.100000,-0.100000)"
fill="#000000" stroke="none">
<path d="M3640 8079 c-202 -24 -411 -82 -585 -163 -206 -96 -355 -203 -527
-377 -230 -233 -392 -518 -477 -841 -48 -180 -61 -325 -61 -672 l0 -306 428 0
c407 0 429 -1 459 -20 52 -31 57 -97 11 -140 -22 -20 -32 -20 -840 -20 -881 0
-865 1 -902 -51 -21 -31 -20 -87 3 -125 31 -51 60 -54 469 -54 l372 0 2 -172
3 -173 500 0 500 1 118 38 c109 35 118 40 113 60 -88 307 -84 661 8 941 38
113 77 208 94 225 8 8 12 10 8 3 -22 -39 -23 -149 -2 -114 4 6 1 11 -6 11 -7
1 0 11 16 24 18 15 24 26 17 30 -6 4 -11 2 -11 -3 0 -6 -5 -11 -11 -11 -5 0
-7 4 -4 10 8 13 17 49 19 77 0 12 5 25 10 30 5 4 6 3 2 -4 -3 -6 -1 -15 6 -20
17 -11 19 -43 3 -37 -7 3 -16 1 -20 -5 -6 -10 8 -16 29 -12 5 1 4 -4 -2 -12
-7 -8 -9 -16 -6 -20 3 -3 -3 -12 -15 -19 -24 -15 -28 -33 -6 -24 21 8 19 -28
-2 -45 -16 -13 -17 -12 -4 4 23 30 4 31 -24 2 -14 -16 -23 -31 -20 -34 4 -3
10 1 15 9 7 11 10 11 10 2 0 -7 -7 -15 -15 -18 -8 -4 -15 -13 -15 -21 0 -8 5
-11 10 -8 6 3 10 1 10 -4 0 -6 -4 -11 -10 -11 -5 0 -10 -9 -10 -20 0 -11 5
-20 10 -20 6 0 10 -5 10 -11 0 -5 -4 -8 -9 -4 -5 3 -12 1 -16 -5 -3 -6 4 -10
17 -10 18 0 20 -2 8 -10 -12 -8 -12 -10 5 -10 27 1 100 46 86 54 -6 4 -18 -2
-28 -14 -19 -22 -38 -26 -48 -10 -9 14 4 32 17 24 6 -4 5 -10 -3 -15 -10 -6
-10 -9 -2 -9 7 0 19 13 27 28 9 17 23 28 37 29 19 2 21 0 9 -8 -13 -8 -12 -11
3 -24 25 -18 50 -9 38 14 -7 13 -5 17 10 17 15 0 19 -5 16 -18 -3 -10 -1 -16
3 -13 16 10 6 -40 -12 -59 -20 -22 -23 -36 -8 -36 11 0 9 -28 -3 -47 -11 -18
-27 -16 -27 2 0 13 -2 13 -14 3 -11 -11 -9 -15 13 -24 20 -8 27 -8 29 2 4 14
42 26 42 13 0 -5 -5 -9 -11 -9 -5 0 -7 -5 -4 -10 4 -6 1 -17 -5 -25 -9 -11 -9
-15 -1 -15 6 0 11 5 11 11 0 8 6 7 18 -2 15 -12 16 -12 5 2 -14 18 -8 30 12
23 9 -4 13 2 11 19 -3 20 1 24 20 23 29 -1 29 -4 7 -29 -10 -11 -13 -17 -6
-14 6 4 15 2 18 -4 4 -6 17 -14 29 -19 17 -7 17 -9 4 -9 -10 -1 -18 -6 -18
-12 0 -8 -5 -7 -15 1 -12 10 -13 15 -4 21 7 4 1 6 -14 6 -17 -2 -25 -7 -24
-19 1 -13 7 -16 22 -12 16 5 18 4 8 -7 -15 -15 -17 -33 -4 -24 5 3 12 1 16 -4
3 -6 12 -8 20 -4 8 3 15 0 15 -6 0 -6 9 -11 20 -11 11 0 20 -4 20 -10 0 -5 -6
-10 -13 -10 -7 0 -20 -9 -29 -19 -14 -17 -14 -20 -2 -25 8 -3 14 -14 12 -23
-2 -10 3 -18 10 -19 6 -1 15 -2 19 -3 4 0 -2 -8 -13 -17 -18 -14 -18 -15 4 -4
18 9 21 14 12 25 -16 20 -20 54 -7 62 17 11 36 68 32 99 -1 15 1 22 7 16 5 -5
10 -20 12 -33 5 -44 19 -83 38 -103 10 -11 15 -22 12 -25 -4 -3 -9 0 -11 7 -3
6 -9 12 -14 12 -4 0 -6 -7 -3 -15 4 -8 14 -15 23 -15 14 0 44 -53 46 -82 0 -5
5 -8 10 -9 19 -1 26 -29 12 -49 -8 -11 -17 -17 -20 -13 -4 3 -7 1 -7 -5 0 -7
-7 -12 -16 -12 -9 0 -12 5 -8 12 4 7 3 8 -5 4 -6 -4 -9 -12 -6 -17 10 -15 43
-10 57 9 15 21 45 42 34 24 -4 -7 -2 -12 4 -12 6 0 8 -5 5 -10 -4 -6 -11 -8
-16 -5 -5 4 -9 0 -9 -8 0 -8 7 -18 16 -21 21 -8 24 -8 24 5 0 5 -5 7 -12 3 -7
-4 -8 -3 -4 4 8 14 38 4 33 -12 -2 -6 -13 -12 -25 -14 -12 -2 -22 -8 -22 -13
0 -13 34 -11 48 3 9 9 23 1 60 -34 152 -142 323 -231 626 -323 l109 -33 -7 94
c-8 116 -26 214 -60 319 -79 247 -297 454 -548 521 -65 17 -125 54 -111 68 3
3 2 6 -3 6 -5 0 -11 11 -12 23 -1 13 -19 82 -41 153 -66 219 -226 770 -286
989 -93 336 -117 417 -144 499 -17 49 -29 92 -26 94 8 9 78 -44 180 -135 133
-119 610 -533 760 -660 l121 -101 69 19 c135 38 252 51 385 45 128 -5 258 -26
330 -51 l41 -14 82 68 c45 38 166 138 268 223 102 84 293 243 424 353 338 284
320 273 370 233 55 -43 55 -41 55 -638 l0 -550 724 0 723 0 33 -22 c48 -33 72
-70 77 -119 6 -57 -25 -105 -87 -136 l-44 -23 -714 0 c-568 0 -713 -3 -709
-12 55 -127 70 -168 88 -241 l22 -87 646 0 c419 0 659 -4 684 -11 56 -15 104
-69 112 -123 6 -38 3 -53 -19 -89 -47 -81 -9 -77 -755 -77 l-661 0 0 -82 c-1
-167 -46 -412 -100 -542 -17 -39 -30 -74 -30 -78 0 -4 330 -9 734 -10 728 -3
735 -3 763 -24 41 -30 73 -82 73 -118 0 -44 -29 -97 -69 -123 l-34 -23 -817 0
-816 0 -51 -63 c-28 -35 -76 -91 -108 -125 l-57 -62 109 -51 c59 -28 169 -72
243 -97 l135 -47 393 -5 394 -5 30 -34 c24 -27 29 -39 24 -65 -8 -44 -55 -83
-109 -91 -25 -4 -204 -5 -399 -2 -465 6 -457 4 -837 188 l-205 99 -35 -28
c-116 -92 -349 -205 -531 -257 -166 -47 -278 -59 -489 -52 -248 8 -386 41
-600 143 -62 29 -118 51 -124 47 -6 -3 -7 -1 -3 5 7 11 -71 69 -87 64 -5 -1
-6 1 -3 6 3 5 -7 24 -23 42 l-28 34 -71 -45 c-44 -27 -69 -49 -67 -57 3 -8 0
-12 -7 -9 -18 5 -114 -50 -110 -63 1 -6 -2 -9 -7 -6 -14 9 -81 -33 -81 -51 0
-8 5 -11 12 -7 8 5 9 2 5 -9 -8 -22 2 -49 16 -40 6 3 7 1 3 -6 -4 -7 3 -35 17
-64 38 -80 89 -197 160 -367 35 -85 90 -213 122 -285 32 -71 81 -186 110 -255
29 -69 94 -219 145 -335 51 -115 114 -262 140 -325 26 -63 91 -214 145 -335
53 -121 112 -255 130 -297 l33 -78 -1073 0 c-1038 0 -1075 1 -1136 20 -276 85
-437 433 -360 780 58 258 183 479 367 646 l84 77 66 200 c36 110 71 212 79
226 20 39 88 100 215 193 314 230 604 440 687 497 l92 63 -102 101 c-110 110
-162 177 -244 314 -29 49 -56 94 -60 100 -6 10 -41 3 -148 -29 l-140 -42 -513
-4 -513 -3 6 -57 c46 -424 201 -811 446 -1109 l59 -71 -83 -66 c-45 -36 -122
-98 -172 -136 -301 -236 -478 -494 -579 -841 -114 -396 -5 -857 264 -1113 l59
-56 -325 0 c-345 0 -379 -4 -403 -48 -20 -37 -13 -98 13 -129 l24 -28 3274 0
c2354 0 3281 3 3303 11 18 6 38 26 49 46 18 33 18 39 5 75 -24 64 -54 73 -259
73 l-175 0 -30 47 c-45 72 -143 167 -204 198 -128 64 -50 60 -1036 65 l-900 5
0 680 0 680 445 3 445 2 -3 -386 c-2 -389 -1 -414 33 -414 11 0 278 256 655
627 l175 173 120 0 c413 1 783 134 1093 394 282 237 490 564 597 938 82 285
79 241 83 1188 2 578 0 872 -8 930 -26 199 -93 416 -186 603 -113 226 -198
341 -393 529 -274 266 -556 405 -1001 495 -78 15 -231 17 -1875 19 -984 1
-1824 -2 -1865 -7z m3405 -770 c53 -13 122 -70 141 -116 8 -18 14 -57 14 -87
0 -44 -6 -62 -32 -102 -120 -177 -386 -85 -366 127 8 82 60 144 146 175 46 16
44 16 97 3z m759 -22 c54 -29 97 -93 103 -151 14 -118 -88 -226 -212 -226 -68
1 -167 75 -180 135 -3 14 -7 36 -10 49 -9 42 22 119 63 159 71 70 151 81 236
34z m-4361 -882 c-3 -9 -8 -14 -10 -11 -3 3 -2 9 2 15 9 16 15 13 8 -4z m145
-12 c-12 -15 -22 -18 -14 -4 4 5 0 11 -6 14 -7 3 -3 4 9 4 17 -1 19 -4 11 -14z
m-93 -23 c-3 -5 -12 -10 -18 -10 -7 0 -6 4 3 10 19 12 23 12 15 0z m-55 -4 c0
-2 -8 -10 -17 -17 -16 -13 -17 -12 -4 4 13 16 21 21 21 13z m-37 -40 c3 -8 -2
-20 -11 -27 -14 -11 -15 -11 -5 0 6 7 9 20 6 27 -3 8 -3 14 0 14 3 0 7 -6 10
-14z m335 -82 c-3 -14 -5 -12 -10 9 -3 19 -2 25 4 19 6 -6 8 -18 6 -28z m-35
-7 c4 -10 -4 -13 -28 -13 -18 1 -31 4 -28 9 2 4 8 5 12 3 4 -3 13 -1 21 5 19
11 17 11 23 -4z m-249 -5 c2 -4 -5 -9 -17 -9 -17 -2 -19 0 -7 7 18 12 18 12
24 2z m171 -1 c3 -5 2 -12 -3 -15 -5 -3 -9 1 -9 9 0 17 3 19 12 6z m149 -9 c3
-5 -1 -9 -9 -9 -8 0 -15 4 -15 9 0 4 4 8 9 8 6 0 12 -4 15 -8z m-255 -25 c8
-10 7 -14 -2 -14 -8 0 -14 6 -14 14 0 7 1 13 2 13 2 0 8 -6 14 -13z m112 -20
c-10 -9 -11 -8 -5 6 3 10 9 15 12 12 3 -3 0 -11 -7 -18z m116 -15 c0 -11 -4
-10 -14 4 -7 10 -13 22 -13 26 0 5 6 3 13 -4 8 -7 14 -19 14 -26z m-168 12
c-12 -15 -11 -16 8 -10 12 4 24 3 27 -2 3 -6 -5 -12 -19 -14 -14 -3 -25 -1
-25 5 0 5 -8 3 -17 -4 -10 -7 -7 -1 6 14 26 29 43 38 20 11z m-174 -4 c3 -5 1
-10 -4 -10 -6 0 -11 5 -11 10 0 6 2 10 4 10 3 0 8 -4 11 -10z m309 -16 c3 -8
2 -12 -4 -9 -6 3 -10 10 -10 16 0 14 7 11 14 -7z m-161 -55 c-3 -11 -8 -19
-10 -19 -3 0 -3 9 0 20 3 13 0 20 -9 20 -8 0 -14 7 -14 15 0 13 3 13 19 -1 11
-10 16 -24 14 -35z m134 29 c-3 -8 -6 -5 -6 6 -1 11 2 17 5 13 3 -3 4 -12 1
-19z m-28 -21 c-2 -1 -13 -9 -24 -17 -19 -14 -19 -14 -6 3 7 9 18 17 24 17 6
0 8 -1 6 -3z m158 -3 c-3 -3 -12 -4 -19 -1 -8 3 -5 6 6 6 11 1 17 -2 13 -5z
m72 -18 c17 -19 20 -26 9 -32 -7 -4 -10 -4 -6 0 10 12 -23 45 -40 38 -10 -3
-13 -1 -8 6 11 17 20 15 45 -12z m-174 -4 c-3 -3 -11 0 -18 7 -9 10 -8 11 6 5
10 -3 15 -9 12 -12z m-260 -2 c-3 -5 -12 -10 -18 -10 -7 0 -6 4 3 10 19 12 23
12 15 0z m-94 -20 c-8 -4 -11 -15 -8 -24 4 -10 1 -16 -8 -16 -8 0 -15 5 -15
12 0 15 32 50 39 43 3 -4 -1 -10 -8 -15z m115 -15 c-9 -14 -22 -25 -29 -24 -9
0 -8 2 1 6 7 3 18 16 23 30 5 14 12 23 16 20 3 -4 -2 -18 -11 -32z m-73 7
c-10 -7 -17 -18 -15 -23 1 -5 -2 -9 -8 -9 -5 0 -10 7 -10 15 0 8 5 15 11 15 5
0 8 4 5 8 -2 4 4 8 15 8 19 0 20 -1 2 -14z m112 8 c3 -5 1 -10 -4 -10 -6 0
-11 5 -11 10 0 6 2 10 4 10 3 0 8 -4 11 -10z m135 -5 c0 -8 -4 -15 -8 -15 -5
0 -9 7 -9 15 0 8 4 15 9 15 4 0 8 -7 8 -15z m95 6 c3 -5 2 -12 -3 -15 -5 -3
-9 1 -9 9 0 17 3 19 12 6z m-116 -38 c6 6 11 8 11 3 0 -4 -6 -13 -13 -20 -11
-11 -16 -8 -30 18 -17 31 -17 31 1 9 14 -16 22 -19 31 -10z m301 5 c0 -4 -4
-8 -9 -8 -6 0 -12 4 -15 8 -3 5 1 9 9 9 8 0 15 -4 15 -9z m-364 -29 c5 -8 1
-8 -13 0 -11 6 -22 8 -25 6 -3 -3 -5 2 -5 9 0 11 5 12 18 5 10 -5 21 -14 25
-20z m229 21 c3 -5 1 -10 -4 -10 -6 0 -11 5 -11 10 0 6 2 10 4 10 3 0 8 -4 11
-10z m-125 -35 c0 -5 -5 -3 -10 5 -5 8 -10 20 -10 25 0 6 5 3 10 -5 5 -8 10
-19 10 -25z m-302 13 c-2 -5 -6 -8 -9 -6 -3 2 -13 -3 -21 -10 -13 -10 -17 -10
-22 3 -3 9 -2 13 3 10 5 -3 12 -2 15 3 7 12 37 11 34 0z m392 -9 c0 -6 -4 -7
-10 -4 -5 3 -10 11 -10 16 0 6 5 7 10 4 6 -3 10 -11 10 -16z m-234 -24 c-9 -9
-16 -13 -16 -8 0 12 22 34 28 28 2 -2 -3 -11 -12 -20z m79 15 c3 -6 -1 -7 -9
-4 -18 7 -21 14 -7 14 6 0 13 -4 16 -10z m268 -7 c-13 -2 -33 -2 -45 0 -13 2
-3 4 22 4 25 0 35 -2 23 -4z m-313 -20 c0 -9 -3 -13 -7 -10 -11 12 -62 -44
-56 -62 4 -14 3 -14 -6 -1 -10 15 1 34 44 72 25 22 25 22 25 1z m70 -15 c0 -4
-4 -10 -10 -13 -5 -3 -10 -1 -10 6 0 7 -8 5 -21 -7 -15 -14 -20 -15 -17 -4 2
8 7 18 12 22 12 8 46 6 46 -4z m25 -36 c-3 -3 -11 0 -18 7 -9 10 -8 11 6 5 10
-3 15 -9 12 -12z m-106 -44 c-13 -5 -17 -13 -12 -25 5 -15 4 -16 -8 -5 -11 10
-11 16 -1 32 16 26 15 30 -4 30 -8 0 -12 5 -8 11 4 7 14 3 29 -12 21 -23 21
-24 4 -31z m76 42 c3 -5 15 -10 26 -10 27 0 24 -18 -3 -22 -13 -2 -21 -7 -18
-13 3 -5 10 -9 15 -7 6 1 -1 -7 -15 -18 -28 -22 -45 -26 -33 -7 11 18 12 37 2
37 -6 0 -7 5 -3 11 5 8 9 8 14 -1 5 -8 10 -9 14 -2 3 6 -1 18 -10 26 -8 9 -11
16 -5 16 5 0 13 -4 16 -10z m-38 -16 c-3 -3 -12 -4 -19 -1 -8 3 -5 6 6 6 11 1
17 -2 13 -5z m80 -71 c-16 -16 -17 -16 -17 0 0 10 5 15 10 12 6 -3 10 -1 10 6
0 7 3 9 7 5 4 -3 -1 -14 -10 -23z m-33 -8 c-4 -8 -10 -15 -15 -15 -4 0 -6 7
-3 15 4 8 10 15 15 15 4 0 6 -7 3 -15z m32 -38 c1 -9 -2 -19 -7 -23 -5 -3 -7
-10 -4 -15 6 -8 0 -10 -22 -8 -5 0 -6 8 -5 17 3 14 1 15 -9 5 -16 -16 -39 -17
-39 -2 0 5 4 8 9 4 5 -3 13 0 16 6 4 6 18 8 34 4 21 -5 24 -4 14 6 -16 16 -17
32 -1 27 6 -2 12 -12 14 -21z m-29 -116 c0 -11 -5 -18 -9 -15 -4 3 -5 11 -1
19 7 21 12 19 10 -4z m373 -1486 c-7 -9 -15 -13 -17 -11 -7 7 7 26 19 26 6 0
6 -6 -2 -15z m73 -28 c4 3 7 -1 7 -10 0 -15 -3 -15 -20 -5 -11 7 -20 17 -20
22 0 4 6 3 13 -3 8 -6 17 -8 20 -4z m-103 -14 c0 -15 -2 -16 -10 -3 -8 13 -11
12 -24 -5 -9 -11 -16 -15 -16 -9 0 14 21 34 37 34 7 0 13 -8 13 -17z m17 -5
c-3 -8 -6 -5 -6 6 -1 11 2 17 5 13 3 -3 4 -12 1 -19z m53 -23 c-7 -8 -17 -15
-23 -15 -6 0 -2 7 9 15 25 19 30 19 14 0z m44 -10 c3 -8 1 -15 -4 -15 -6 0
-10 7 -10 15 0 8 2 15 4 15 2 0 6 -7 10 -15z m-158 -23 c-17 -16 -18 -16 -5 5
7 12 15 20 18 17 3 -2 -3 -12 -13 -22z m55 11 c13 -16 12 -17 -3 -4 -17 13
-22 21 -14 21 2 0 10 -8 17 -17z m76 -3 c2 -20 -8 -26 -20 -13 -4 3 -2 12 4
20 15 17 14 17 16 -7z m89 7 c4 -3 -4 -4 -16 -2 -12 2 -25 7 -28 10 -3 3 4 4
16 2 12 -2 24 -6 28 -10z m-139 -29 c-3 -8 -6 -5 -6 6 -1 11 2 17 5 13 3 -3 4
-12 1 -19z m91 2 c-7 -10 -14 -17 -17 -15 -4 4 18 35 25 35 2 0 -1 -9 -8 -20z
m-243 -10 c-3 -5 -12 -10 -18 -10 -7 0 -6 4 3 10 19 12 23 12 15 0z m-60 -10
c-3 -5 -12 -10 -18 -10 -7 0 -6 4 3 10 19 12 23 12 15 0z m185 -20 c0 -5 -5
-10 -11 -10 -5 0 -7 5 -4 10 3 6 8 10 11 10 2 0 4 -4 4 -10z m120 -34 c0 -6
-7 -1 -15 10 -8 10 -15 23 -15 28 0 6 7 1 15 -10 8 -10 15 -23 15 -28z m110
30 c0 -3 -4 -8 -10 -11 -5 -3 -10 -1 -10 4 0 6 5 11 10 11 6 0 10 -2 10 -4z
m-157 -24 c15 -17 15 -18 -5 -19 -12 -1 -25 -8 -29 -15 -7 -11 -9 -10 -9 0 0
8 9 16 20 19 16 4 18 8 9 19 -17 21 -5 17 14 -4z m127 -3 c0 -6 -4 -7 -10 -4
-5 3 -10 11 -10 16 0 6 5 7 10 4 6 -3 10 -11 10 -16z m-336 3 c3 -5 -1 -9 -9
-9 -8 0 -12 4 -9 9 3 4 7 8 9 8 2 0 6 -4 9 -8z m376 -6 c0 -3 -4 -8 -10 -11
-5 -3 -10 -1 -10 4 0 6 5 11 10 11 6 0 10 -2 10 -4z m-34 -32 c-4 -9 -1 -24 6
-33 12 -14 11 -14 -4 -2 -16 12 -18 11 -18 -3 0 -14 -2 -14 -19 1 -11 9 -17
21 -14 27 4 6 8 6 11 -2 2 -7 8 -12 14 -12 6 0 7 7 4 16 -3 8 -2 12 4 9 6 -3
10 -1 10 4 0 6 3 11 6 11 3 0 3 -7 0 -16z m-197 3 c-2 -1 -15 -11 -29 -22
l-25 -20 19 23 c11 12 24 22 29 22 6 0 8 -1 6 -3z m91 -5 c0 -5 -7 -9 -15 -9
-8 0 -12 4 -9 9 3 4 9 8 15 8 5 0 9 -4 9 -8z m-230 -6 c0 -3 -4 -8 -10 -11 -5
-3 -10 -1 -10 4 0 6 5 11 10 11 6 0 10 -2 10 -4z m420 -31 c-5 -7 -7 -14 -4
-18 3 -3 -5 -3 -18 1 -18 5 -19 7 -5 10 9 2 17 6 17 9 0 3 -8 12 -17 20 -16
12 -14 12 9 2 20 -9 25 -16 18 -24z m-253 19 c-3 -3 -12 -4 -19 -1 -8 3 -5 6
6 6 11 1 17 -2 13 -5z m-17 -18 c0 -2 -9 -6 -20 -9 -11 -3 -18 -1 -14 4 5 9
34 13 34 5z m27 -11 c0 -8 -4 -12 -9 -9 -5 3 -6 10 -3 15 9 13 12 11 12 -6z
m113 -6 c0 -3 -9 -9 -20 -12 -19 -5 -27 3 -15 15 8 7 35 6 35 -3z m75 1 c-3
-5 -1 -10 4 -10 6 0 11 -5 11 -11 0 -8 -5 -8 -15 1 -13 11 -12 30 1 30 3 0 2
-4 -1 -10z m95 -5 c11 -13 10 -14 -4 -9 -9 3 -16 10 -16 15 0 13 6 11 20 -6z
m-229 -22 c11 -13 11 -15 1 -9 -8 5 -18 1 -26 -10 -10 -13 -15 -14 -21 -4 -5
8 -4 11 2 7 6 -4 14 0 17 9 5 12 2 15 -9 10 -9 -3 -13 -2 -10 4 9 15 31 12 46
-7z m79 -1 c0 -4 -9 -8 -19 -8 -11 0 -17 4 -15 8 3 4 12 8 20 8 8 0 14 -4 14
-8z m105 -2 c3 -5 1 -10 -5 -10 -7 0 -10 -7 -6 -15 8 -23 -29 -39 -45 -19 -7
9 -21 13 -33 10 -21 -5 -21 -5 -2 9 17 13 22 13 36 0 25 -22 38 -18 32 10 -4
25 11 35 23 15z m-337 -25 c-3 -3 -9 2 -12 12 -6 14 -5 15 5 6 7 -7 10 -15 7
-18z m418 13 c5 -8 2 -9 -9 -5 -9 3 -23 0 -31 -8 -7 -8 -17 -11 -20 -8 -4 4 4
13 16 20 29 16 35 16 44 1z m-251 -18 c-3 -5 -11 -10 -16 -10 -6 0 -7 5 -4 10
3 6 11 10 16 10 6 0 7 -4 4 -10z m-14 -35 c11 6 11 5 2 -5 -12 -14 -33 -6 -33
13 0 8 3 7 9 -2 5 -8 14 -10 22 -6z m106 -7 c-3 -8 -6 -5 -6 6 -1 11 2 17 5
13 3 -3 4 -12 1 -19z m128 12 c3 -6 -1 -7 -9 -4 -18 7 -21 14 -7 14 6 0 13 -4
16 -10z m70 -11 c-4 -5 1 -9 9 -9 19 0 21 -16 4 -26 -6 -4 -8 -3 -5 3 4 6 0
13 -8 17 -10 3 -15 -1 -16 -12 -1 -16 -2 -16 -6 1 -2 9 -11 17 -19 17 -8 0
-14 4 -14 8 0 5 7 9 15 9 8 0 15 -4 15 -9 0 -5 5 -6 10 -3 6 4 7 11 4 17 -4 7
-2 8 5 4 6 -4 9 -12 6 -17z m-456 -2 c-2 -1 -15 -11 -28 -22 l-24 -20 14 23
c8 12 20 22 28 22 8 0 12 -1 10 -3z m371 -7 c0 -5 -5 -10 -11 -10 -5 0 -7 5
-4 10 3 6 8 10 11 10 2 0 4 -4 4 -10z m-30 -25 c0 -8 -4 -15 -10 -15 -5 0 -7
7 -4 15 4 8 8 15 10 15 2 0 4 -7 4 -15z m-46 -11 c3 -8 2 -12 -4 -9 -6 3 -10
10 -10 16 0 14 7 11 14 -7z m224 -48 c-19 -14 -25 -32 -7 -20 8 5 8 1 0 -13
-6 -11 -8 -23 -5 -25 3 -3 -2 -8 -11 -12 -13 -4 -14 -2 -5 14 5 10 7 26 4 34
-4 10 0 18 10 22 9 3 16 11 16 16 0 6 -6 8 -13 5 -8 -3 -13 3 -13 14 0 18 1
18 21 -1 19 -20 19 -22 3 -34z m-393 34 c-3 -5 -12 -10 -18 -10 -7 0 -6 4 3
10 19 12 23 12 15 0z m290 -20 c3 -5 2 -10 -4 -10 -5 0 -13 5 -16 10 -3 6 -2
10 4 10 5 0 13 -4 16 -10z m-150 -10 c3 -5 1 -10 -4 -10 -6 0 -11 5 -11 10 0
6 2 10 4 10 3 0 8 -4 11 -10z m-48 -22 c-3 -8 -6 -5 -6 6 -1 11 2 17 5 13 3
-3 4 -12 1 -19z m103 17 c0 -2 -6 -8 -13 -14 -10 -8 -14 -7 -14 2 0 8 6 14 14
14 7 0 13 -1 13 -2z m118 -12 c-10 -2 -18 -9 -18 -14 0 -6 -5 -7 -11 -3 -14 8
8 24 31 23 11 -1 10 -3 -2 -6z m117 -13 c-3 -5 0 -10 7 -10 8 0 14 -12 15 -27
2 -25 1 -26 -7 -7 -5 12 -13 25 -19 29 -11 6 -6 25 5 25 3 0 2 -4 -1 -10z
m-371 -26 c3 -8 2 -12 -4 -9 -6 3 -10 10 -10 16 0 14 7 11 14 -7z m351 6 c3
-5 1 -10 -4 -10 -6 0 -11 5 -11 10 0 6 2 10 4 10 3 0 8 -4 11 -10z m-220 -10
c-3 -5 -12 -10 -18 -10 -7 0 -6 4 3 10 19 12 23 12 15 0z m39 -6 c3 -8 2 -12
-4 -9 -6 3 -10 10 -10 16 0 14 7 11 14 -7z m110 -2 c2 -4 -4 -8 -14 -8 -10 0
-16 4 -14 8 3 4 9 8 14 8 5 0 11 -4 14 -8z m91 -11 c3 -5 1 -12 -5 -16 -5 -3
-10 1 -10 9 0 18 6 21 15 7z m-455 -5 c0 -3 -4 -8 -10 -11 -5 -3 -10 -1 -10 4
0 6 5 11 10 11 6 0 10 -2 10 -4z m234 -12 c3 -8 2 -12 -4 -9 -6 3 -10 10 -10
16 0 14 7 11 14 -7z m69 3 c5 -14 -36 -18 -49 -4 -5 4 -1 5 8 2 9 -4 19 -2 23
4 8 14 12 14 18 -2z m-156 -13 c-3 -3 -12 -4 -19 -1 -8 3 -5 6 6 6 11 1 17 -2
13 -5z m313 -20 c0 -8 -6 -11 -15 -8 -8 4 -15 9 -15 13 0 4 7 8 15 8 8 0 15
-6 15 -13z m-240 2 c0 -3 -4 -8 -10 -11 -5 -3 -10 -1 -10 4 0 6 5 11 10 11 6
0 10 -2 10 -4z m190 -6 c0 -5 -8 -10 -17 -10 -15 0 -16 2 -3 10 19 12 20 12
20 0z m92 1 c-10 -6 -7 -13 15 -29 20 -15 23 -21 12 -22 -9 0 -24 11 -32 24
-16 24 -13 36 7 36 6 0 5 -4 -2 -9z m-452 -25 c0 -2 -8 -10 -17 -17 -16 -13
-17 -12 -4 4 13 16 21 21 21 13z m351 -10 c7 4 9 3 6 -3 -12 -20 -43 -21 -43
-2 0 13 4 15 13 8 7 -6 18 -7 24 -3z m83 -4 c3 -5 -1 -9 -9 -9 -8 0 -12 4 -9
9 3 4 7 8 9 8 2 0 6 -4 9 -8z m-353 -25 c-10 -9 -11 -8 -5 6 3 10 9 15 12 12
3 -3 0 -11 -7 -18z m411 -4 c-6 -2 -10 -9 -7 -13 3 -5 2 -11 -3 -14 -4 -2 -9
4 -9 15 -1 12 4 19 15 18 11 0 12 -2 4 -6z m-232 -23 c8 -5 11 -10 5 -10 -5 0
-17 5 -25 10 -8 5 -10 10 -5 10 6 0 17 -5 25 -10z m126 -12 c4 -7 4 -10 -1 -6
-4 4 -15 2 -24 -5 -14 -11 -14 -10 -2 6 16 20 18 21 27 5z m137 6 c8 -8 -3
-34 -15 -34 -6 0 -6 6 1 14 9 11 9 15 -1 19 -7 3 -8 6 -2 6 6 1 13 -2 17 -5z
m70 -14 c10 -12 9 -12 -4 -2 -9 6 -18 9 -21 6 -3 -3 -9 -1 -12 4 -9 15 22 8
37 -8z m-169 -5 c-7 -16 -24 -21 -24 -6 0 8 7 13 27 20 1 1 0 -6 -3 -14z m56
-10 c-7 -8 -18 -15 -24 -14 -7 0 -6 2 2 6 6 2 10 9 6 14 -3 5 2 9 12 9 13 0
14 -3 4 -15z m-210 -30 c0 -5 -5 -3 -10 5 -5 8 -10 20 -10 25 0 6 5 3 10 -5 5
-8 10 -19 10 -25z m25 17 c-3 -3 -11 0 -18 7 -9 10 -8 11 6 5 10 -3 15 -9 12
-12z m-70 -21 c-6 -21 -25 -29 -25 -11 0 6 5 10 10 10 6 0 10 8 10 17 0 9 3
14 6 10 3 -3 3 -15 -1 -26z m198 6 c3 -8 -3 -13 -14 -13 -22 0 -25 12 -6 19 6
3 13 6 13 6 1 1 4 -5 7 -12z m-89 -6 c3 -5 -2 -15 -12 -22 -15 -12 -16 -12 -5
2 7 9 10 19 6 22 -3 4 -4 7 0 7 3 0 8 -4 11 -9z m252 -19 c-17 -16 -18 -16 -5
5 7 12 15 20 18 17 3 -2 -3 -12 -13 -22z m-223 -13 c-4 -15 -8 -17 -14 -8 -6
11 4 28 18 29 0 0 -1 -9 -4 -21z m291 3 c3 -5 -1 -9 -9 -9 -8 0 -12 4 -9 9 3
4 7 8 9 8 2 0 6 -4 9 -8z m-287 -38 c-3 -3 -12 -4 -19 -1 -8 3 -5 6 6 6 11 1
17 -2 13 -5z m76 -9 c-3 -9 -8 -14 -10 -11 -3 3 -2 9 2 15 9 16 15 13 8 -4z
m-80 -20 c-3 -9 -8 -14 -10 -11 -3 3 -2 9 2 15 9 16 15 13 8 -4z m71 -14 c4
-5 -3 -7 -14 -4 -23 6 -26 13 -6 13 8 0 17 -4 20 -9z m221 -13 c-6 -30 -21
-43 -28 -24 -4 9 -1 15 5 13 7 -1 13 4 14 11 2 19 4 22 8 22 3 0 3 -10 1 -22z
m-495 -8 c0 -5 -5 -10 -11 -10 -5 0 -7 5 -4 10 3 6 8 10 11 10 2 0 4 -4 4 -10z
m580 -4 c0 -3 -4 -8 -10 -11 -5 -3 -10 -1 -10 4 0 6 5 11 10 11 6 0 10 -2 10
-4z m-52 -26 c-7 -10 -14 -17 -17 -15 -4 4 18 35 25 35 2 0 -1 -9 -8 -20z m32
-25 c-7 -8 -18 -15 -25 -15 -8 0 -16 -6 -18 -12 -3 -8 -6 -6 -6 5 -1 10 6 17
18 17 11 0 23 5 26 10 3 6 9 10 12 10 3 0 0 -7 -7 -15z m-204 -43 c-15 -15
-15 -15 -4 10 7 15 15 23 17 17 2 -6 -4 -18 -13 -27z m140 -32 c0 -12 -4 -16
-9 -11 -5 5 -6 14 -3 20 10 15 12 14 12 -9z m-19 -46 c-3 -3 -12 -4 -19 -1 -8
3 -5 6 6 6 11 1 17 -2 13 -5z m138 -4 c3 -5 1 -10 -4 -10 -6 0 -11 5 -11 10 0
6 2 10 4 10 3 0 8 -4 11 -10z m-88 -42 c2 -17 0 -19 -7 -8 -5 8 -6 18 -4 22 8
12 10 10 11 -14z m68 2 c3 -5 1 -10 -4 -10 -6 0 -11 5 -11 10 0 6 2 10 4 10 3
0 8 -4 11 -10z m23 -95 c-3 -3 -9 2 -12 12 -6 14 -5 15 5 6 7 -7 10 -15 7 -18z"/>
<path d="M5936 5954 c-250 -39 -393 -108 -533 -258 -128 -137 -200 -321 -223
-576 -6 -67 -9 -124 -7 -126 8 -8 282 88 382 134 259 120 415 262 521 477 41
83 82 219 98 323 l6 42 -77 -1 c-43 -1 -118 -7 -167 -15z"/>
<path d="M3397 5938 c-11 -10 -24 -18 -30 -18 -5 0 -20 -11 -33 -25 -13 -14
-19 -25 -14 -25 5 0 16 10 24 22 9 12 16 17 16 10 0 -19 28 -14 34 6 3 9 22
22 41 28 28 9 33 8 24 -2 -6 -7 -6 -14 -1 -18 9 -6 22 15 22 34 0 15 -62 6
-83 -12z"/>
<path d="M3421 5911 c-8 -6 -9 -11 -3 -15 6 -3 14 -1 17 5 9 14 2 20 -14 10z"/>
<path d="M3290 5900 c0 -5 5 -10 11 -10 5 0 7 5 4 10 -3 6 -8 10 -11 10 -2 0
-4 -4 -4 -10z"/>
<path d="M3356 5841 c-7 -11 22 -23 36 -15 6 4 5 10 -3 15 -18 11 -26 11 -33
0z"/>
<path d="M3490 5749 c0 -5 -4 -7 -10 -4 -17 10 -11 -2 8 -16 9 -7 14 -9 10 -5
-4 5 -3 15 3 23 9 9 8 13 0 13 -6 0 -11 -5 -11 -11z"/>
<path d="M3528 5718 c-17 -17 -17 -18 0 -19 9 -1 25 -1 35 0 9 1 17 -3 17 -9
0 -6 -4 -8 -10 -5 -6 3 -7 -1 -4 -9 7 -19 24 -11 24 11 0 8 -9 17 -19 20 -11
3 -21 10 -23 17 -2 7 -9 5 -20 -6z"/>
<path d="M3474 5695 c1 -8 8 -21 16 -28 12 -10 12 -9 1 6 -8 10 -9 17 -3 17 6
0 14 -4 17 -10 3 -5 11 -10 17 -10 6 0 -1 9 -15 20 -30 24 -36 25 -33 5z"/>
<path d="M3689 5693 c-3 -43 -5 -48 -17 -45 -9 2 -10 -3 -3 -15 5 -10 9 -22
10 -28 1 -5 6 -10 11 -9 6 1 16 2 22 3 7 0 2 8 -10 17 -15 10 -20 20 -14 27 9
13 15 67 7 67 -3 0 -6 -8 -6 -17z"/>
<path d="M3419 5663 c-13 -16 -12 -17 4 -4 9 7 17 15 17 17 0 8 -8 3 -21 -13z"/>
<path d="M3543 5667 c3 -9 1 -18 -6 -21 -7 -2 -4 -5 6 -5 19 -1 23 24 5 35 -7
5 -9 2 -5 -9z"/>
<path d="M3458 5653 c7 -3 16 -2 19 1 4 3 -2 6 -13 5 -11 0 -14 -3 -6 -6z"/>
<path d="M3580 5620 c8 -5 20 -10 25 -10 6 0 3 5 -5 10 -8 5 -19 10 -25 10 -5
0 -3 -5 5 -10z"/>
<path d="M3520 5606 c0 -2 7 -7 16 -10 8 -3 12 -2 9 4 -6 10 -25 14 -25 6z"/>
<path d="M3706 5575 c-3 -8 -1 -15 4 -15 6 0 10 5 10 10 0 7 5 6 13 -1 17 -16
19 -49 4 -68 -9 -11 -9 -13 0 -8 7 4 18 -2 27 -15 9 -12 16 -18 16 -14 0 5 -7
18 -17 28 -9 11 -11 18 -5 18 15 0 11 28 -8 58 -17 25 -35 29 -44 7z"/>
<path d="M3630 5539 c0 -5 5 -7 10 -4 6 3 10 8 10 11 0 2 -4 4 -10 4 -5 0 -10
-5 -10 -11z"/>
<path d="M3710 5530 c0 -5 5 -10 11 -10 5 0 7 5 4 10 -3 6 -8 10 -11 10 -2 0
-4 -4 -4 -10z"/>
<path d="M3790 5473 c0 -10 4 -14 8 -8 4 6 11 13 16 18 5 4 2 7 -7 7 -10 0
-17 -8 -17 -17z"/>
<path d="M3715 5469 c-4 -6 -4 -13 -1 -16 3 -4 6 -1 6 7 0 10 4 10 18 -1 15
-13 16 -12 3 4 -16 20 -18 20 -26 6z"/>
<path d="M3810 5390 c-9 -6 -10 -10 -3 -10 6 0 15 5 18 10 8 12 4 12 -15 0z"/>
<path d="M3889 5363 c-7 -10 -9 -15 -4 -10 4 4 19 0 33 -9 31 -21 35 -15 7 14
-21 22 -22 22 -36 5z"/>
<path d="M3830 5337 c0 -2 6 -10 14 -16 11 -9 16 -9 22 1 4 7 4 10 -1 6 -4 -4
-14 -3 -22 3 -7 6 -13 9 -13 6z"/>
<path d="M3989 5243 c-12 -16 -12 -17 2 -6 9 7 20 9 24 5 5 -4 5 -1 1 6 -9 16
-11 15 -27 -5z"/>
<path d="M4020 5226 c0 -2 8 -10 18 -17 15 -13 16 -12 3 4 -13 16 -21 21 -21
13z"/>
<path d="M4072 5161 c13 -17 27 -30 31 -30 5 -1 -2 12 -15 28 -13 17 -27 30
-31 30 -5 1 2 -12 15 -28z"/>
<path d="M1264 4984 c-47 -19 -69 -51 -69 -98 0 -45 25 -88 63 -105 14 -7 107
-11 240 -11 195 0 220 2 248 19 87 53 61 178 -43 201 -57 13 -404 8 -439 -6z"/>
<path d="M4662 4611 c2 -5 48 -60 103 -122 55 -62 112 -126 126 -143 l26 -30
29 24 c16 13 56 55 89 94 33 38 84 96 114 128 l53 58 -272 0 c-156 0 -270 -4
-268 -9z"/>
<path d="M8147 1272 c-39 -41 -38 -100 4 -141 41 -41 86 -42 131 -2 27 24 33
36 33 70 0 90 -107 137 -168 73z"/>
</g>
</svg>
